<?xml version="1.0" encoding="UTF-8" standalone="no"?>
<!DOCTYPE svg PUBLIC "-//W3C//DTD SVG 1.1//EN" "http://www.w3.org/Graphics/SVG/1.1/DTD/svg11.dtd">
<svg xmlns="http://www.w3.org/2000/svg" version="1.1" viewBox="0.00 0.00 763.00 800.00">
<path fill="#176b87" d="
  M 386.51 762.47
  C 374.37 762.62 362.01 762.21 349.42 761.25
  C 333.27 760.01 315.69 757.22 296.69 752.87
  C 266.82 746.03 237.19 734.82 207.80 719.23
  C 193.80 711.81 179.77 702.44 166.80 693.32
  C 157.91 687.07 149.11 680.06 140.39 672.28
  C 121.12 655.08 103.29 635.65 88.16 614.61
  C 51.24 563.29 29.06 505.88 21.61 442.38
  C 21.14 438.43 20.45 429.88 19.54 416.75
  C 19.27 412.96 19.20 405.04 19.32 392.99
  C 19.39 385.83 19.67 379.18 20.16 373.03
  C 21.15 360.56 22.52 349.13 24.25 338.76
  C 35.38 272.14 63.01 213.04 107.13 161.46
  C 111.58 156.25 118.65 148.89 128.34 139.36
  C 180.41 88.14 248.80 53.90 320.83 42.51
  C 337.08 39.94 350.58 38.40 361.33 37.90
  C 371.33 37.43 382.52 37.43 394.90 37.90
  C 401.26 38.15 407.34 38.47 413.15 38.88
  C 421.09 39.43 429.24 40.36 437.61 41.66
  C 474.70 47.42 509.23 58.09 541.20 73.68
  C 591.25 98.07 633.44 132.16 667.79 175.96
  C 671.73 180.97 675.75 186.48 679.86 192.48
  C 711.99 239.42 732.11 291.36 740.22 348.31
  C 740.97 353.62 741.58 358.94 742.04 364.27
  C 742.37 368.10 742.69 371.78 742.98 375.33
  C 743.29 379.07 743.46 382.68 743.49 386.17
  C 743.63 403.48 743.82 413.31 742.97 423.22
  C 742.74 425.93 742.51 428.77 742.28 431.73
  C 738.40 482.47 723.49 531.55 699.16 576.25
  C 677.82 615.46 649.83 649.53 615.20 678.48
  C 599.68 691.46 584.17 702.52 568.66 711.67
  C 525.85 736.94 480.02 752.80 431.17 759.25
  C 421.02 760.59 410.88 761.56 400.77 762.15
  C 398.68 762.27 393.92 762.38 386.51 762.47
  Z
  M 391.57 181.58
  C 382.10 180.92 371.64 180.79 362.12 182.75
  C 345.70 186.13 330.96 192.91 317.89 203.08
  C 312.64 207.17 306.56 213.05 302.40 217.88
  C 291.39 230.67 283.78 245.22 279.59 261.53
  C 278.42 266.12 277.79 269.68 277.72 272.21
  C 277.53 279.01 277.46 286.19 277.51 293.75
  C 277.54 298.72 278.04 303.28 279.00 307.42
  C 282.85 324.08 290.09 338.80 300.74 351.58
  C 308.60 361.02 317.79 369.03 328.31 375.60
  C 338.24 381.81 349.29 386.10 361.45 388.47
  C 366.59 389.47 372.15 390.41 377.37 390.52
  C 398.92 390.98 418.78 385.54 436.93 374.20
  C 442.25 370.88 447.48 366.74 452.61 361.78
  C 459.66 354.97 464.88 348.99 468.27 343.86
  C 475.70 332.61 480.85 320.51 483.72 307.54
  C 485.08 301.36 485.76 295.45 485.77 289.82
  C 485.78 284.15 485.59 278.56 485.20 273.03
  C 484.77 267.00 483.51 260.93 481.41 254.84
  C 470.32 222.73 449.28 200.40 418.29 187.85
  C 410.07 184.52 400.25 182.19 391.57 181.58
  Z
  M 422.21 443.62
  C 413.43 442.21 404.13 441.66 395.22 441.56
  C 387.02 441.46 378.78 441.38 370.50 441.31
  C 363.94 441.25 357.54 441.59 351.29 442.32
  C 320.79 445.90 291.16 453.89 263.62 466.86
  C 253.34 471.71 243.27 477.05 233.41 482.88
  C 205.04 499.67 178.93 522.01 156.51 546.83
  C 148.74 555.42 144.05 568.37 146.25 580.20
  C 149.15 595.80 158.67 604.21 170.60 615.97
  C 210.69 655.47 262.42 684.19 318.03 695.63
  C 325.92 697.26 334.20 698.68 342.87 699.91
  C 344.84 700.19 346.80 700.37 348.75 700.45
  C 354.10 700.67 359.12 701.29 364.61 701.40
  C 381.28 701.75 394.28 701.70 403.60 701.24
  C 412.32 700.81 423.82 699.20 438.11 696.42
  C 444.42 695.19 450.89 693.62 457.53 691.70
  C 469.60 688.21 479.93 684.72 488.52 681.25
  C 531.81 663.76 570.71 637.57 605.23 602.68
  C 610.87 596.98 614.57 590.14 616.34 582.15
  C 617.89 575.12 617.50 568.22 615.17 561.44
  C 613.24 555.83 610.71 551.31 607.60 547.88
  C 598.10 537.41 588.19 527.52 577.87 518.19
  C 569.07 510.23 559.29 502.85 549.75 496.05
  C 529.05 481.30 507.24 469.41 484.33 460.40
  C 464.90 452.75 444.20 447.16 422.21 443.62
  Z"
/>
</svg>
